<?xml version="1.0" encoding="iso-8859-1"?>
<!-- Generator: Adobe Illustrator 19.0.0, SVG Export Plug-In . SVG Version: 6.00 Build 0)  -->
<svg version="1.1" id="Capa_1" xmlns="http://www.w3.org/2000/svg" xmlns:xlink="http://www.w3.org/1999/xlink" x="0px" y="0px"
	 viewBox="0 0 343.089 343.089" style="enable-background:new 0 0 343.089 343.089;" xml:space="preserve">
<g>
	<g>
		<g>
			<path d="M239.122,124.473h-125.91V72.228c-0.057-4.328-3.611-7.79-7.939-7.733c-2.146,0.028-4.186,0.935-5.645,2.509
				L2.452,166.269c-2.885,2.397-3.281,6.679-0.885,9.564c0.267,0.321,0.563,0.618,0.885,0.885l97.176,99.265
				c1.501,1.588,3.563,2.526,5.747,2.612h3.135c2.983-1.448,4.828-4.523,4.702-7.837v-47.02h125.91
				c5.262-0.892,9.305-5.148,9.927-10.449v-83.592C249.048,125.518,243.824,124.473,239.122,124.473z"/>
			<path d="M272.558,121.86c-4.328,0-7.837,3.509-7.837,7.837v83.592c0,4.328,3.509,7.837,7.837,7.837s7.837-3.509,7.837-7.837
				v-83.592C280.395,125.369,276.887,121.86,272.558,121.86z"/>
			<path d="M303.905,121.86c-4.328,0-7.837,3.509-7.837,7.837v83.592c0,4.328,3.509,7.837,7.837,7.837s7.837-3.509,7.837-7.837
				v-83.592C311.742,125.369,308.233,121.86,303.905,121.86z"/>
			<path d="M335.252,121.86c-4.328,0-7.837,3.509-7.837,7.837v83.592c0,4.328,3.509,7.837,7.837,7.837s7.837-3.509,7.837-7.837
				v-83.592C343.089,125.369,339.58,121.86,335.252,121.86z"/>
		</g>
	</g>
</g>
<g>
</g>
<g>
</g>
<g>
</g>
<g>
</g>
<g>
</g>
<g>
</g>
<g>
</g>
<g>
</g>
<g>
</g>
<g>
</g>
<g>
</g>
<g>
</g>
<g>
</g>
<g>
</g>
<g>
</g>
</svg>
